<?xml version="1.0" encoding="utf-8"?>
<svg viewBox="0 0 200 150" xmlns="http://www.w3.org/2000/svg">
  <defs/>
  <g id="cloud_5_" transform="matrix(1.010142, 0, 0, 0.968917, -304.05692, -207.831775)">
    <path style="fill:#FFFFFF;" d="M477.783,286.471c0.839-3.25,1.294-6.665,1.294-10.193c0-21.596-16.777-39.104-37.473-39.104&#10;&#9;&#9;&#9;c-6.016,0-11.696,1.488-16.734,4.117c-4.147-15.454-17.733-26.792-33.867-26.792c-19.208,0-34.809,16.068-35.159,36.024&#10;&#9;&#9;&#9;c-3.468-0.917-7.098-1.408-10.839-1.408c-24.3,0-44,20.557-44,45.915c0,23.86,17.442,43.464,39.746,45.697&#10;&#9;&#9;&#9;c1.038,0.138,2.092,0.218,3.165,0.218h0.059c3.621,16.252,17.576,28.364,34.252,28.364c12.822,0,24.038-7.161,30.185-17.858&#10;&#9;&#9;&#9;c5.666,8.339,14.982,13.787,25.524,13.787c14.509,0,26.707-10.312,30.24-24.294h9.784c13.77,0,25.036-11.756,25.036-26.125v-2.532&#10;&#9;&#9;&#9;C498.995,299.277,489.755,288.407,477.783,286.471z"/>
    <path style="fill:#D7F6FF;" d="M477.783,289.926c0.839-3.115,1.294-6.387,1.294-9.767c0-20.696-16.777-37.473-37.473-37.473&#10;&#9;&#9;&#9;c-6.016,0-11.696,1.426-16.734,3.945c-4.147-14.809-17.733-25.674-33.867-25.674c-19.208,0-34.809,15.398-35.159,34.522&#10;&#9;&#9;&#9;c-3.468-0.879-7.098-1.349-10.839-1.349c-24.3,0-44,19.7-44,44c0,22.865,17.442,41.651,39.746,43.791&#10;&#9;&#9;&#9;c1.038,0.133,2.092,0.209,3.165,0.209h0.059c3.621,15.574,17.576,27.181,34.252,27.181c12.822,0,24.038-6.863,30.185-17.113&#10;&#9;&#9;&#9;c5.666,7.991,14.982,13.212,25.524,13.212c14.509,0,26.707-9.882,30.24-23.281h9.784c13.77,0,25.036-11.266,25.036-25.036v-2.426&#10;&#9;&#9;&#9;C498.995,302.197,489.755,291.781,477.783,289.926z"/>
    <path style="fill:#97DAF4;" d="M473.959,336.129h-9.784c-3.533,13.399-15.731,23.281-30.24,23.281&#10;&#9;&#9;&#9;c-10.542,0-19.858-5.221-25.524-13.212c-6.147,10.25-17.363,17.113-30.185,17.113c-16.676,0-30.631-11.608-34.252-27.181h-0.059&#10;&#9;&#9;&#9;c-1.072,0-2.127-0.076-3.165-0.209c-21.319-2.046-38.183-19.302-39.633-40.789c-0.067,0.992-0.113,1.989-0.113,2.998&#10;&#9;&#9;&#9;c0,22.865,17.442,41.651,39.746,43.791c1.038,0.133,2.092,0.209,3.165,0.209h0.059c3.621,15.574,17.576,27.181,34.252,27.181&#10;&#9;&#9;&#9;c12.822,0,24.038-6.863,30.185-17.113c5.666,7.991,14.982,13.212,25.524,13.212c14.509,0,26.707-9.882,30.24-23.281h9.784&#10;&#9;&#9;&#9;c13.77,0,25.036-11.266,25.036-25.036v-2.426c0-0.572-0.04-1.134-0.078-1.697C497.948,325.872,487.097,336.129,473.959,336.129z"/>
  </g>
</svg>