<?xml version="1.0" encoding="utf-8"?>
<svg viewBox="0 0 200 150" xmlns="http://www.w3.org/2000/svg">
  <defs/>
  <g id="cloud_11_" transform="matrix(1.010146, 0, 0, 1.2397, -561.213143, -69.552156)">
    <path style="fill:#FFFFFF;" d="M732.972,122.164c2.575-5.924,4.022-12.512,4.022-19.461c0-25.736-19.699-46.599-44-46.599&#10;&#9;&#9;&#9;c-12.232,0-23.295,5.29-31.27,13.823c-5.069-5.115-11.925-8.262-19.48-8.262c-14.183,0-25.922,11.07-27.941,25.497&#10;&#9;&#9;&#9;c-2.569-0.737-5.27-1.138-8.059-1.138c-16.983,0-30.75,14.581-30.75,32.566c0,1.248,0.073,2.478,0.202,3.69&#10;&#9;&#9;&#9;c-11.505,2.944-20.12,13.965-20.12,27.021v0c0,15.29,11.812,27.799,26.249,27.799h145.493c14.437,0,26.249-12.51,26.249-27.799v0&#10;&#9;&#9;&#9;C753.566,136.067,744.714,124.923,732.972,122.164z"/>
    <path style="fill:#D7F6FF;" d="M732.972,125.228c2.575-5.594,4.022-11.814,4.022-18.376c0-24.301-19.699-44-44-44&#10;&#9;&#9;&#9;c-12.232,0-23.295,4.995-31.27,13.052c-5.069-4.83-11.925-7.801-19.48-7.801c-14.183,0-25.922,10.453-27.941,24.074&#10;&#9;&#9;&#9;c-2.569-0.696-5.27-1.074-8.059-1.074c-16.983,0-30.75,13.767-30.75,30.75c0,1.179,0.073,2.34,0.202,3.485&#10;&#9;&#9;&#9;c-11.505,2.78-20.12,13.187-20.12,25.514v0c0,14.437,11.812,26.249,26.249,26.249h145.493c14.437,0,26.249-11.812,26.249-26.249v0&#10;&#9;&#9;&#9;C753.566,138.356,744.714,127.833,732.972,125.228z"/>
    <path style="fill:#97DAF4;" d="M727.318,172H581.825c-13.754,0-25.117-10.244-26.162-23.139c-0.05,0.658-0.087,1.321-0.087,1.991&#10;&#9;&#9;&#9;v0c0,14.437,11.812,26.249,26.249,26.249h145.493c14.437,0,26.249-11.812,26.249-26.249v0c0-0.668-0.038-1.326-0.087-1.982&#10;&#9;&#9;&#9;C752.429,161.761,741.068,172,727.318,172z"/>
  </g>
</svg>