<?xml version="1.0" encoding="utf-8"?>
<svg viewBox="0 0 200 150" xmlns="http://www.w3.org/2000/svg">
  <defs/>
  <g id="cloud_2_" transform="matrix(1.010152, 0, 0, 1.186465, -304.05988, -60.125306)">
    <path style="fill:#FFFFFF;" d="M478.645,107.136c0.113-1.129,0.173-2.274,0.173-3.435c0-18.003-13.968-32.597-31.198-32.597&#10;&#9;&#9;&#9;c-3.911,0-7.65,0.759-11.099,2.131c-2.994-12.943-14.146-22.559-27.453-22.559c-10.616,0-19.86,6.122-24.687,15.169&#10;&#9;&#9;&#9;c-7.093-5.115-15.688-8.117-24.958-8.117c-24.301,0-44,20.583-44,45.974c0,2.296,0.166,4.551,0.477,6.756&#10;&#9;&#9;&#9;c-8.992,6.664-14.895,17.615-14.895,29.944l0,0c0,20.185,15.806,36.7,35.124,36.7h127.741c19.318,0,35.124-16.515,35.124-36.7l0,0&#10;&#9;&#9;&#9;C498.995,125.723,490.633,112.993,478.645,107.136z"/>
    <path style="fill:#D7F6FF;" d="M478.645,110.14c0.113-1.08,0.173-2.177,0.173-3.287c0-17.23-13.968-31.198-31.198-31.198&#10;&#9;&#9;&#9;c-3.911,0-7.65,0.726-11.099,2.04c-2.994-12.387-14.146-21.591-27.453-21.591c-10.616,0-19.86,5.859-24.687,14.518&#10;&#9;&#9;&#9;c-7.093-4.896-15.688-7.769-24.958-7.769c-24.301,0-44,19.699-44,44c0,2.197,0.166,4.355,0.477,6.466&#10;&#9;&#9;&#9;c-8.992,6.378-14.895,16.859-14.895,28.658v0c0,19.318,15.806,35.124,35.124,35.124h127.741c19.318,0,35.124-15.806,35.124-35.124&#10;&#9;&#9;&#9;v0C498.995,127.929,490.633,115.746,478.645,110.14z"/>
    <path style="fill:#97DAF4;" d="M463.871,172H336.129c-18.673,0-34.061-14.145-35.069-31.801c-0.03,0.59-0.056,1.181-0.056,1.778v0&#10;&#9;&#9;&#9;c0,19.318,15.806,35.124,35.124,35.124h127.741c19.318,0,35.124-15.806,35.124-35.124v0c0-0.568-0.036-1.127-0.063-1.688&#10;&#9;&#9;&#9;C497.878,157.902,482.512,172,463.871,172z"/>
  </g>
</svg>