<?xml version="1.0" encoding="utf-8"?>
<svg viewBox="0 0 200 150" xmlns="http://www.w3.org/2000/svg">
  <defs/>
  <g id="cloud_8_" transform="matrix(1.010152, 0, 0, 1.101152, -46.905392, -247.206394)">
    <path style="fill:#FFFFFF;" d="M223.409,277.493c-3.569-13.577-15.489-23.558-29.653-23.558c-2.79,0-5.49,0.394-8.059,1.119&#10;&#9;&#9;&#9;c-2.019-14.193-13.758-25.084-27.941-25.084c-7.554,0-14.411,3.096-19.48,8.128c-7.975-8.395-19.038-13.6-31.27-13.6&#10;&#9;&#9;&#9;c-24.301,0-44,20.525-44,45.845c0,2.817,0.257,5.571,0.724,8.247c-10.063,3.835-17.296,13.93-17.296,25.7&#10;&#9;&#9;&#9;c0,15.042,11.812,27.349,26.249,27.349h10.846c3.622,16.646,17.898,29.077,34.97,29.077c15.306,0,28.366-9.994,33.515-24.057&#10;&#9;&#9;&#9;c5.123,10.456,15.55,17.621,27.59,17.621c13.885,0,25.635-9.522,29.565-22.641h9.006c14.437,0,26.249-12.307,26.249-27.349&#10;&#9;&#9;&#9;C244.424,291.116,235.36,280.039,223.409,277.493z"/>
    <path style="fill:#D7F6FF;" d="M223.409,280.842c-3.569-13.031-15.489-22.61-29.653-22.61c-2.79,0-5.49,0.378-8.059,1.074&#10;&#9;&#9;&#9;c-2.019-13.622-13.758-24.075-27.941-24.075c-7.554,0-14.411,2.971-19.48,7.801c-7.975-8.057-19.038-13.053-31.27-13.053&#10;&#9;&#9;&#9;c-24.301,0-44,19.7-44,44c0,2.704,0.257,5.346,0.724,7.916c-10.063,3.681-17.296,13.369-17.296,24.666&#10;&#9;&#9;&#9;c0,14.437,11.812,26.249,26.249,26.249h10.846c3.622,15.976,17.898,27.907,34.97,27.907c15.306,0,28.366-9.592,33.515-23.089&#10;&#9;&#9;&#9;c5.123,10.035,15.55,16.912,27.59,16.912c13.885,0,25.635-9.139,29.565-21.73h9.006c14.437,0,26.249-11.812,26.249-26.249&#10;&#9;&#9;&#9;C244.424,293.916,235.36,283.285,223.409,280.842z"/>
    <path style="fill:#97DAF4;" d="M218.175,326.811h-9.006c-3.93,12.591-15.68,21.73-29.565,21.73&#10;&#9;&#9;&#9;c-12.04,0-22.468-6.876-27.59-16.912c-5.15,13.497-18.209,23.089-33.515,23.089c-17.072,0-31.348-11.931-34.97-27.907H72.682&#10;&#9;&#9;&#9;c-13.402,0-24.536-10.182-26.063-23.192c-0.11,0.969-0.185,1.947-0.185,2.944c0,14.437,11.812,26.249,26.249,26.249h10.846&#10;&#9;&#9;&#9;c3.622,15.976,17.898,27.907,34.97,27.907c15.306,0,28.366-9.592,33.515-23.089c5.123,10.035,15.55,16.912,27.59,16.912&#10;&#9;&#9;&#9;c13.885,0,25.635-9.139,29.565-21.73h9.006c14.437,0,26.249-11.812,26.249-26.249c0-0.997-0.076-1.975-0.185-2.944&#10;&#9;&#9;&#9;C242.711,316.628,231.578,326.811,218.175,326.811z"/>
  </g>
</svg>