<?xml version="1.0" encoding="utf-8"?>
<svg viewBox="0 0 200 150" xmlns="http://www.w3.org/2000/svg">
  <defs/>
  <g id="cloud" transform="matrix(1.010152, 0, 0, 1.081861, -561.215829, -244.861881)">
    <path style="fill:#FFFFFF;" d="M738.95,283.952c0.127-1.427,0.199-2.871,0.199-4.333c0-25.515-19.7-46.199-44-46.199&#10;&#9;&#9;&#9;c-9.27,0-17.866,3.017-24.959,8.157c-4.827-9.091-14.07-15.243-24.687-15.243c-13.307,0-24.459,9.664-27.453,22.67&#10;&#9;&#9;&#9;c-3.449-1.38-7.188-2.142-11.099-2.142c-17.23,0-31.198,14.666-31.198,32.757c0,0.548,0.014,1.092,0.039,1.634&#10;&#9;&#9;&#9;c-11.717,4.161-20.216,15.832-20.216,29.494v0c0,17.12,13.341,31.128,29.646,31.128h16.906&#10;&#9;&#9;&#9;c5.84,13.621,18.871,23.109,34.02,23.109c11.932,0,22.548-5.89,29.375-15.044c5.112,5.37,12.176,8.691,19.979,8.691&#10;&#9;&#9;&#9;c11.196,0,20.87-6.84,25.442-16.756h12.976c16.305,0,29.646-14.008,29.646-31.128v0&#10;&#9;&#9;&#9;C753.566,299.376,747.679,289.385,738.95,283.952z"/>
    <path style="fill:#D7F6FF;" d="M738.95,287.809c0.127-1.359,0.199-2.734,0.199-4.127c0-24.301-19.7-44-44-44&#10;&#9;&#9;&#9;c-9.27,0-17.866,2.873-24.959,7.769c-4.827-8.658-14.07-14.518-24.687-14.518c-13.307,0-24.459,9.204-27.453,21.591&#10;&#9;&#9;&#9;c-3.449-1.314-7.188-2.04-11.099-2.04c-17.23,0-31.198,13.968-31.198,31.198c0,0.522,0.014,1.04,0.039,1.556&#10;&#9;&#9;&#9;c-11.717,3.963-20.216,15.079-20.216,28.09v0c0,16.305,13.341,29.646,29.646,29.646h16.906&#10;&#9;&#9;&#9;c5.84,12.972,18.871,22.009,34.02,22.009c11.932,0,22.548-5.61,29.375-14.328c5.112,5.114,12.176,8.278,19.979,8.278&#10;&#9;&#9;&#9;c11.196,0,20.87-6.514,25.442-15.958h12.976c16.305,0,29.646-13.341,29.646-29.646v0&#10;&#9;&#9;&#9;C753.566,302.499,747.679,292.984,738.95,287.809z"/>
    <path style="fill:#97DAF4;" d="M723.92,336.705h-12.976c-4.571,8.906-14.245,15.049-25.442,15.049&#10;&#9;&#9;&#9;c-7.803,0-14.867-2.983-19.979-7.806c-6.828,8.222-17.443,13.512-29.375,13.512c-15.149,0-28.18-8.522-34.02-20.755h-16.906&#10;&#9;&#9;&#9;c-15.532,0-28.365-11.418-29.548-25.792c-0.065,0.797-0.098,1.602-0.098,2.415v0c0,16.305,13.341,29.646,29.646,29.646h16.906&#10;&#9;&#9;&#9;c5.84,12.972,18.871,22.009,34.02,22.009c11.932,0,22.548-5.61,29.375-14.328c5.112,5.114,12.176,8.278,19.979,8.278&#10;&#9;&#9;&#9;c11.196,0,20.87-6.514,25.442-15.958h12.976c16.305,0,29.646-13.341,29.646-29.646v0c0-0.794-0.041-1.578-0.103-2.356&#10;&#9;&#9;&#9;C752.25,325.318,739.431,336.705,723.92,336.705z"/>
  </g>
</svg>