<?xml version="1.0"?>
<svg width="50" height="50" xmlns="http://www.w3.org/2000/svg" xmlns:svg="http://www.w3.org/2000/svg">
 <defs>
  <linearGradient gradientTransform="matrix(0.017788, -0.999784, 1.850277, 0.044013, -71.682106, 19.797555)" gradientUnits="userSpaceOnUse" id="gradient-0" x1="-11.44" x2="-11.44" y1="27.32" y2="32.67">
   <stop offset="0" stop-color="rgb(85.882% 0% 0%)"/>
   <stop offset="1" stop-color="rgb(57.111% 0% 0%)"/>
  </linearGradient>
  <linearGradient gradientTransform="matrix(0.999507, -0.031402, 0.010796, 0.343622, -0.027733, 3.1645)" gradientUnits="userSpaceOnUse" id="gradient-1" x1="24.08" x2="24.08" y1="3.67" y2="40.1">
   <stop offset="0" stop-color="rgb(85.882% 0% 0%)"/>
   <stop offset="1" stop-color="rgb(57.111% 0% 0%)"/>
  </linearGradient>
 </defs>
 <g class="layer">
  <title>Layer 1</title>
  <path d="m-13.67,27.75q2.23,-0.86 4.46,0l10.41,4.05q2.23,0.87 -2.23,0.87l-20.81,0q-4.47,0 -2.24,-0.87l10.41,-4.05z" fill="url(&#x27;#gradient-0&#x27;)" id="svg_1" transform="matrix(1 0 0 1 0 0) translate(1.375 3.375) matrix(0 1 -1 -0.002998 31.5346 31.4565)"/>
  <ellipse cx="24.08" cy="21.89" fill="url(&#x27;#gradient-1&#x27;)" id="svg_2" rx="22.67" ry="18.22" transform="matrix(1 0 0 1 0 0)"/>
  <path d="m49.75,21.89q0.71,0.13 0,0.26l-3.32,0.57q-0.71,0.13 -0.71,-0.12l0,-1.19q0,-0.26 0.71,-0.13l3.32,0.61z" fill="rgb(219, 166, 0)" id="svg_3" stroke="rgb(0, 0, 0)" stroke-width="0.2px"/>
  <line fill="rgb(216, 216, 216)" id="svg_4" stroke="rgb(236, 164, 0)" x1="22.15" x2="22.22" y1="37.6" y2="43.89"/>
  <path d="m27.1,46.28q0.15,-0.09 0.29,0l0.68,0.45q0.14,0.1 -0.15,0.1l-1.35,0q-0.29,0 -0.14,-0.1l0.67,-0.45z" id="svg_5"/>
  <path d="m17.13,46.28q0.21,-0.1 0.43,0l1,0.45q0.21,0.1 -0.22,0.1l-2,0q-0.43,0 -0.21,-0.1l1,-0.45z" id="svg_6"/>
  <path d="m21.26,44.09q0.89,-0.48 1.78,0l4.16,2.25q0.89,0.49 -0.89,0.49l-8.32,0q-1.78,0 -0.89,-0.49l4.16,-2.25z" fill="rgb(236, 164, 0)" id="svg_7"/>
  <ellipse cx="38.7" cy="13.83" id="svg_8" rx="1.14" ry="1.34"/>
  <ellipse cx="17.3" cy="25.87" fill="rgba(216, 216, 216, 0)" id="svg_9" rx="10.66" ry="6.45" stroke="rgb(0, 0, 0)"/>
  <line fill="rgba(216, 216, 216, 0)" id="svg_10" stroke="rgb(0, 0, 0)" x1="7.11" x2="10.26" y1="27.05" y2="24.69"/>
  <line fill="rgba(216, 216, 216, 0)" id="svg_11" stroke="rgb(0, 0, 0)" x1="8.45" x2="11.75" y1="29.25" y2="26.34"/>
  <line fill="rgba(216, 216, 216, 0)" id="svg_12" stroke="rgb(0, 0, 0)" x1="10.81" x2="13.4" y1="30.75" y2="27.84"/>
  <line fill="rgba(216, 216, 216, 0)" id="svg_13" stroke="rgb(0, 0, 0)" x1="13.4" x2="15.21" y1="31.85" y2="28.78"/>
 </g>
</svg>