<?xml version="1.0" encoding="utf-8"?>
<svg viewBox="0 0 200 150" xmlns="http://www.w3.org/2000/svg">
  <defs/>
  <g id="cloud_7_" transform="matrix(1.010147, 0, 0, 1.184806, -46.905133, -59.831517)">
    <path style="fill:#FFFFFF;" d="M200.424,85.159c-3.741,0-7.371,0.491-10.839,1.409c-0.35-19.981-15.951-36.069-35.159-36.069&#10;&#9;&#9;&#9;c-16.133,0-29.72,11.352-33.867,26.825c-5.038-2.632-10.718-4.122-16.734-4.122c-20.696,0-37.473,17.529-37.473,39.152&#10;&#9;&#9;&#9;c0,3.532,0.455,6.951,1.294,10.205c-11.972,1.938-21.212,12.821-21.212,25.85v2.535c0,14.387,11.266,26.157,25.036,26.157h130.044&#10;&#9;&#9;&#9;c1.072,0,2.127-0.079,3.165-0.218c22.304-2.236,39.746-21.864,39.746-45.753C244.424,105.741,224.724,85.159,200.424,85.159z"/>
    <path style="fill:#D7F6FF;" d="M 200.424 89.101 C 196.683 89.101 193.053 89.571 189.585 90.45 C 189.477 84.538 187.911 78.981 185.231 74.126 C 179.244 63.277 167.696 55.928 154.426 55.928 C 138.293 55.928 120.559 81.602 120.559 81.602 C 115.521 79.082 109.841 77.657 103.825 77.657 C 83.129 77.657 66.352 94.434 66.352 115.13 C 66.352 118.51 66.807 121.782 67.646 124.898 C 55.674 126.753 46.434 137.169 46.434 149.639 L 46.434 152.065 C 46.434 165.835 57.7 177.101 71.47 177.101 L 201.514 177.101 C 202.586 177.101 203.641 177.025 204.679 176.892 C 226.983 174.752 244.425 155.966 244.425 133.101 C 244.424 115.341 233.901 100.039 218.751 93.088 C 213.171 90.528 206.964 89.101 200.424 89.101 Z"/>
    <path style="fill:#97DAF4;" d="M204.678,171.8c-1.038,0.127-2.092,0.2-3.165,0.2H71.469c-13.41,0-24.441-10.236-25.008-22.953&#10;&#9;&#9;&#9;c-0.005,0.199-0.027,0.393-0.027,0.593v2.426c0,13.77,11.266,25.036,25.036,25.036h130.044c1.072,0,2.127-0.076,3.165-0.209&#10;&#9;&#9;&#9;c22.304-2.14,39.746-20.926,39.746-43.791c0-0.54-0.021-1.075-0.041-1.61C243.538,152.645,226.422,169.801,204.678,171.8z"/>
  </g>
</svg>